<?xml version="1.0" encoding="UTF-8" standalone="no"?>
<!-- Created with Inkscape (http://www.inkscape.org/) -->

<svg
   width="512"
   height="512"
   viewBox="0 0 135.46666 135.46667"
   version="1.1"
   id="svg5"
   inkscape:export-filename="icon-64.png"
   inkscape:export-xdpi="12"
   inkscape:export-ydpi="12"
   inkscape:version="1.1.2 (0a00cf5339, 2022-02-04)"
   sodipodi:docname="logo-simple.svg"
   xmlns:inkscape="http://www.inkscape.org/namespaces/inkscape"
   xmlns:sodipodi="http://sodipodi.sourceforge.net/DTD/sodipodi-0.dtd"
   xmlns="http://www.w3.org/2000/svg"
   xmlns:svg="http://www.w3.org/2000/svg">
  <sodipodi:namedview
     id="namedview7"
     pagecolor="#ffffff"
     bordercolor="#666666"
     borderopacity="1.0"
     inkscape:pageshadow="2"
     inkscape:pageopacity="0"
     inkscape:pagecheckerboard="0"
     inkscape:document-units="px"
     showgrid="false"
     units="px"
     width="512px"
     inkscape:zoom="0.66259766"
     inkscape:cx="223.3633"
     inkscape:cy="186.38762"
     inkscape:window-width="2440"
     inkscape:window-height="1563"
     inkscape:window-x="4128"
     inkscape:window-y="236"
     inkscape:window-maximized="0"
     inkscape:current-layer="layer1" />
  <defs
     id="defs2">
    <rect
       x="17.957258"
       y="210.99363"
       width="500.20737"
       height="484.98748"
       id="rect5511" />
    <rect
       x="17.957258"
       y="210.99364"
       width="500.20737"
       height="484.98749"
       id="rect5511-2" />
    <rect
       x="17.957258"
       y="210.99363"
       width="500.20737"
       height="484.98748"
       id="rect18284" />
    <rect
       x="17.957258"
       y="210.99364"
       width="500.20737"
       height="484.98749"
       id="rect18286" />
    <rect
       x="17.957258"
       y="210.99363"
       width="500.20737"
       height="484.98748"
       id="rect18616" />
    <rect
       x="17.957258"
       y="210.99364"
       width="500.20737"
       height="484.98749"
       id="rect38772" />
  </defs>
  <g
     inkscape:label="Layer 1"
     inkscape:groupmode="layer"
     id="layer1">
    <g
       aria-label="D"
       transform="matrix(0.7212301,0,0,0.7212301,-14.0551,-180.94293)"
       id="text5509"
       style="font-size:40px;line-height:1.25;white-space:pre;shape-inside:url(#rect5511);fill:#808080">
      <path
         d="m 145.28799,322.54265 q 0,26.79693 -17.22659,46.48446 -15.22138,17.59118 -42.747475,18.50264 -5.286468,0.18229 -29.075574,0.18229 -4.466154,0 -13.489608,-0.27344 -8.932308,-0.27343 -13.398462,-0.27343 -2.643234,0 -2.643234,-2.09636 0,-10.02606 0.729168,-30.07818 0.820314,-20.14327 0.820314,-30.16933 0,-10.48179 -0.820314,-31.35422 -0.729168,-20.96358 -0.729168,-31.35423 0,-1.91406 2.643234,-2.27865 6.471366,-0.72916 21.237018,-0.72916 28.072968,0 36.367254,0.82031 21.601597,2.1875 33.815167,10.93752 11.48439,8.20314 18.13805,22.96879 6.38022,13.94534 6.38022,28.71099 z m -34.90892,0 q 0,-15.40367 -9.20574,-25.15629 -9.296893,-10.11721 -24.609421,-10.11721 -14.036484,0 -14.036484,3.73699 0,5.37761 -0.182292,16.22398 -0.182292,10.75523 -0.182292,16.13285 0,5.28646 0.182292,15.95055 0.182292,10.57293 0.182292,15.95055 0,3.91927 14.58336,3.91927 15.768258,0 24.791715,-10.48179 8.47657,-9.93491 8.47657,-26.1589 z"
         style="font-size:186.667px;font-family:'Berlin Sans FB Demi';-inkscape-font-specification:'Berlin Sans FB Demi, Normal';fill:#808080"
         id="path42618" />
    </g>
    <g
       aria-label="S"
       transform="matrix(0.92040929,0,0,0.92040929,38.681188,-193.04027)"
       id="text5509-4"
       style="font-size:40px;line-height:1.25;white-space:pre;shape-inside:url(#rect5511-2);fill:#999999">
      <path
         d="m 96.189598,321.17437 q 0,7.65485 -5.205298,15.1566 -5.052201,7.34865 -14.391118,11.94156 -9.18582,4.74601 -20.974289,4.74601 -9.951305,0 -15.768991,-1.68407 -5.817686,-1.53097 -5.817686,-4.43981 0,-1.53097 2.143358,-5.0522 2.296455,-3.67433 3.521231,-3.67433 1.837164,0 1.837164,0.76549 0,0.45929 -0.612388,1.07168 -0.459291,0.61238 -0.459291,1.22477 0,0.45929 1.837164,1.37788 1.990261,0.91858 5.970783,1.68406 3.980522,0.76549 9.645111,0.76549 9.032723,0 15.768991,-3.52123 6.889365,-3.52123 10.563693,-8.87963 3.674328,-5.35839 3.674328,-10.4106 0,-6.58317 -6.430074,-11.32917 -6.276977,-4.74601 -20.361901,-9.03273 -13.625633,-4.43981 -21.127386,-7.34865 -7.348656,-3.06194 -11.941566,-7.34866 -4.59291,-4.43981 -4.59291,-10.71679 0,-8.42033 9.492014,-16.53447 9.492014,-8.26724 23.423841,-13.31944 13.931827,-5.2053 25.873393,-5.2053 6.12388,0 6.583171,2.44955 0.459291,2.44955 0.459291,5.51149 0,2.29646 -1.684067,2.29646 -0.765485,0 -1.837164,-0.45929 -0.918582,-0.61239 -1.684067,-0.91859 -0.918582,-0.30619 -2.143358,-0.61238 -1.224776,-0.3062 -3.521231,-0.3062 -7.961044,0 -19.137125,4.13362 -11.176081,4.13362 -19.443319,10.2575 -8.114141,6.12388 -8.114141,11.78847 0,4.59291 3.674328,7.96104 3.827425,3.36814 10.104402,5.81769 6.276977,2.29645 17.759252,5.81769 16.84067,4.8991 24.801714,11.02298 8.114141,6.12388 8.114141,15.00351 z"
         style="font-size:153.097px;font-family:'Ink Free';-inkscape-font-specification:'Ink Free, Normal';fill:#999999"
         id="path42621" />
    </g>
  </g>
</svg>
